<?xml version="1.0" encoding="UTF-8"?>
<svg id="Capa_1" xmlns="http://www.w3.org/2000/svg" version="1.1" viewBox="0 0 128 160">
  <!-- Generator: Adobe Illustrator 30.0.0, SVG Export Plug-In . SVG Version: 2.1.1 Build 123)  -->
  <path d="M61.81,56.07l.32.1c.66-2.39,3.06-3.78,5.34-3.1l6.1,1.82c.49.15,1-.15,1.14-.66s-.14-1.04-.63-1.19l-6.1-1.82c-3.21-.96-6.55.96-7.56,4.27-.28-.06-.57-.09-.87-.09h-13.23l-4.69-4.9c-.21-4-3.37-7.18-7.24-7.18-.3,0-.59.03-.88.06-.16-.05-.32-.08-.49-.03l-5.35,1.39c-1.43-2.28-3.89-3.79-6.68-3.79-4.41,0-7.99,3.75-7.99,8.36v18.02c0,3.16,2.23,5.76,5.12,6.23v8.04c0,1.81,2.07,3.43,6.33,4.97.88.32,1.78.54,2.69.69v4.22l.6,9.51v.06l1.42,12.33h-1.11c-.27,0-.53.12-.7.34-.18.22-.25.5-.21.78l2.14,13.62v4.8c0,1.7,1.32,3.09,2.95,3.09h9.94c1.04,0,1.98-.56,2.52-1.49s.57-2.07.09-3.03c-.63-1.26-1.29-1.79-1.87-2.26-.45-.37-.83-.66-1.21-1.35l2.41-13.36c.05-.28-.02-.57-.2-.79s-.43-.35-.71-.35h-1.56v-40.21c.05-.09.08-.19.11-.3l6.14-8.32h11.65c2.41,0,4.37-2.05,4.37-4.57,0-1.66-.85-3.1-2.11-3.9h.01ZM28.98,73.64h9.96c-2.18,3.17-4.11,6.51-5.7,9.99-.49,1.06-1.42,1.75-2.49,1.85-.59.05-1.18.05-1.77.03v-11.87h0ZM20.99,42.86c1.91,0,3.6.94,4.73,2.38l-10.76,2.8c.56-2.95,3.05-5.18,6.03-5.18ZM14.84,67.31v-17.26l11.87-3.09c.27.73.43,1.51.43,2.33v22.42h-8.1c-2.32,0-4.21-1.97-4.21-4.4h.01ZM25.05,84.74c-4.02-1.45-5.09-2.66-5.09-3.15v-7.95h7.18v11.65c-.7-.13-1.4-.3-2.08-.55h-.01ZM29.57,87.46c.44,0,.89-.02,1.34-.06,1.71-.15,3.24-1.27,4-2.93,1.4-3.06,3.05-6.02,4.93-8.83v14.81h-10.85v-3.02c.2,0,.39.02.59.02h-.01ZM39.84,127.86c-.04.21,0,.43.09.63.63,1.26,1.29,1.79,1.87,2.26.51.41.92.74,1.36,1.63.18.37.17.79-.03,1.14-.2.36-.55.56-.95.56h-9.94c-.61,0-1.11-.52-1.11-1.16v-4.88c0-.05,0-.11-.01-.16l-1.98-12.58h12.97l-2.27,12.56h0ZM31.02,113.37l-1.45-12.53-.54-8.46h10.78v20.99h-8.8.01ZM41.66,69.86v-5.31h3.92s-3.92,5.31-3.92,5.31ZM59.56,62.62h-18.43l-8.78-9.19c-.36-.38-.94-.38-1.3,0s-.36.99,0,1.36l8.78,9.19v7.73h-10.85v-20.81c0-3.13,2.43-5.68,5.42-5.68s5.42,2.55,5.42,5.68c0,.13.03.25.07.37.05.12.11.22.2.31l5.2,5.45c.17.18.41.28.65.28h13.61c1.4,0,2.53,1.19,2.53,2.65s-1.14,2.65-2.53,2.65h0Z"/>
  <path d="M84.76,64.21c.18.19.41.28.65.28s.47-.09.65-.28c.36-.38.36-.99,0-1.36l-3.35-3.51c-.36-.38-.94-.38-1.3,0s-.36.99,0,1.36l3.35,3.51Z"/>
  <path d="M93.47,71.97c.36-.38.36-.99,0-1.36l-3.35-3.51c-.36-.38-.94-.38-1.3,0s-.36.99,0,1.36l3.35,3.51c.18.19.41.28.65.28s.47-.09.65-.28Z"/>
  <path d="M96.23,74.86c-.36.38-.36.99,0,1.36l3.35,3.51c.18.19.41.28.65.28s.47-.09.65-.28c.36-.38.36-.99,0-1.36l-3.35-3.51c-.36-.38-.94-.38-1.3,0Z"/>
  <path d="M107,87.49c.18.19.41.28.65.28s.47-.09.65-.28c.36-.37.36-.99,0-1.36l-3.35-3.51c-.36-.38-.94-.38-1.3,0-.36.37-.36.99,0,1.36l3.35,3.51Z"/>
  <path d="M84.99,54.83l4.43,1.75c.11.04.22.06.32.06.37,0,.72-.24.86-.62.18-.5-.06-1.05-.54-1.24l-4.43-1.75c-.47-.19-1,.06-1.19.56-.18.5.06,1.05.54,1.24h.01Z"/>
  <path d="M94.79,58.7l4.43,1.75c.11.04.22.06.32.06.37,0,.72-.24.86-.62.18-.5-.06-1.05-.54-1.24l-4.43-1.75c-.47-.19-1.01.06-1.19.56s.06,1.05.54,1.24h.01Z"/>
  <path d="M104.61,62.57l4.43,1.75c.11.04.22.06.32.06.37,0,.72-.24.86-.62.18-.5-.06-1.05-.54-1.24l-4.43-1.75c-.47-.19-1.01.06-1.19.56s.06,1.05.54,1.24h.01Z"/>
  <path d="M119.5,66.4l-4.43-1.75c-.47-.19-1.01.06-1.19.56s.06,1.05.54,1.24l4.43,1.75c.11.04.22.06.32.06.37,0,.72-.24.86-.62.18-.5-.06-1.05-.54-1.24h.01Z"/>
  <path d="M77.05,68.41c.14.39.49.62.86.62.11,0,.22-.02.32-.06.48-.19.71-.74.54-1.24l-1.67-4.64c-.18-.5-.71-.75-1.19-.56s-.71.74-.54,1.24l1.67,4.64h.01Z"/>
  <path d="M80.75,78.68c.14.39.49.62.86.62.11,0,.22-.02.32-.06.48-.19.71-.74.54-1.24l-1.67-4.64c-.18-.5-.71-.75-1.19-.56s-.71.74-.54,1.24l1.67,4.64h.01Z"/>
  <path d="M83.31,83.07c-.48.19-.71.74-.54,1.24l1.67,4.64c.14.39.49.62.86.62.11,0,.22-.02.32-.06.48-.19.71-.74.54-1.24l-1.67-4.64c-.18-.5-.71-.75-1.19-.56h.01Z"/>
  <path d="M88.2,93.9c-.18-.5-.71-.75-1.19-.56s-.71.74-.54,1.24l1.67,4.64c.14.39.49.62.86.62.11,0,.22-.02.32-.06.48-.19.71-.74.54-1.24l-1.67-4.64h.01Z"/>
  <path d="M22.19,29.47h4.95v1.88c0,4.19,3.26,7.6,7.26,7.6s7.26-3.41,7.26-7.6v-1.88h4.95c.51,0,.92-.43.92-.96s-.41-.96-.92-.96h-4.95v-1.88c0-4.19-3.26-7.61-7.26-7.61s-7.26,3.41-7.26,7.61v1.88h-4.95c-.51,0-.92.43-.92.96s.41.96.92.96ZM39.82,31.35c0,3.13-2.43,5.68-5.42,5.68s-5.42-2.55-5.42-5.68v-1.88h10.85v1.88h-.01ZM28.98,25.67c0-3.13,2.43-5.68,5.42-5.68s5.42,2.55,5.42,5.68v1.88h-10.85v-1.88h.01Z"/>
</svg>