<?xml version="1.0" encoding="UTF-8"?>
<svg id="Capa_1" xmlns="http://www.w3.org/2000/svg" version="1.1" viewBox="0 0 135 135">
  <!-- Generator: Adobe Illustrator 30.0.0, SVG Export Plug-In . SVG Version: 2.1.1 Build 123)  -->
  <path d="M129.09,120.82l-16.93-16.93c3.66-5.33,5.8-11.77,5.8-18.71,0-18.26-14.85-33.11-33.11-33.11-.65,0-1.31.02-1.95.06v-4.29c.62.22,1.28.34,1.94.34,2.02,0,3.87-1.02,4.94-2.73,1.72-2.73.91-6.34-1.82-8.06L50.97,14.03c-1.9-1.2-4.35-1.2-6.24,0L7.72,37.4c-2.72,1.72-3.54,5.34-1.82,8.06,1.48,2.35,4.37,3.28,6.89,2.39v37.34c0,1.08.87,1.95,1.95,1.95h37.07c1.01,17.36,15.45,31.17,33.06,31.17,6.93,0,13.38-2.14,18.71-5.8l16.93,16.93c.38.38.88.57,1.38.57s.99-.19,1.38-.57l5.84-5.84c.76-.76.76-2,0-2.76h0ZM9.2,43.38c-.57-.91-.3-2.11.61-2.69l37-23.37c.63-.4,1.45-.4,2.08,0l37.01,23.37c.91.57,1.18,1.78.61,2.69-.36.57-.97.91-1.65.91-.37,0-.72-.11-1.04-.3l-34.93-22.06c-.32-.2-.68-.3-1.04-.3s-.72.1-1.04.3L11.89,43.99c-.91.57-2.11.3-2.69-.61h0ZM16.69,59.87h13.64v13.64h-13.64v-13.64ZM16.69,77.4h15.58c1.08,0,1.95-.87,1.95-1.95v-17.53c0-1.08-.87-1.95-1.95-1.95h-15.58v-10.41l31.17-19.68,31.17,19.68v7.03c-8.86,1.58-16.5,6.7-21.43,13.83v-8.51c0-1.08-.87-1.95-1.95-1.95h-15.58c-1.08,0-1.95.87-1.95,1.95v25.32h-21.43v-5.84ZM53.7,74c-1.05,2.91-1.7,6.02-1.89,9.24h-9.8v-23.37h11.69v14.13ZM55.64,85.19c0-16.11,13.11-29.22,29.22-29.22s29.22,13.11,29.22,29.22-13.11,29.22-29.22,29.22-29.22-13.11-29.22-29.22ZM121.87,125.29l-15.2-15.2c1.1-.96,2.13-2,3.09-3.09l15.2,15.2-3.09,3.09Z"/>
  <path d="M98.5,87.14h-2.11c-.19-1.09-.52-2.13-.98-3.1l2.02-1.01c.96-.48,1.35-1.65.87-2.61-.48-.96-1.65-1.35-2.61-.87l-2.55,1.28c-.72-.72-1.53-1.34-2.42-1.86v-1.57c0-1.57-.62-3-1.64-4.05l1.43-2.87c.48-.96.09-2.13-.87-2.61-.96-.48-2.13-.09-2.61.87l-1.43,2.86c-.23-.03-.48-.05-.72-.05s-.49.02-.72.05l-1.43-2.86c-.48-.96-1.65-1.35-2.61-.87-.96.48-1.35,1.65-.87,2.61l1.43,2.87c-1.01,1.05-1.64,2.48-1.64,4.05v1.57c-.89.52-1.7,1.14-2.42,1.86l-2.55-1.28c-.96-.48-2.13-.09-2.61.87-.48.96-.09,2.13.87,2.61l2.02,1.01c-.46.96-.8,2.01-.98,3.1h-2.11c-1.08,0-1.95.87-1.95,1.95s.87,1.95,1.95,1.95h2.11c.19,1.09.52,2.13.98,3.1l-2.02,1.01c-.96.48-1.35,1.65-.87,2.61.34.68,1.03,1.08,1.74,1.08.29,0,.59-.07.87-.2l2.55-1.28c2.11,2.12,5.04,3.43,8.26,3.43s6.15-1.31,8.26-3.43l2.55,1.28c.28.14.57.2.87.2.71,0,1.4-.39,1.74-1.08.48-.96.09-2.13-.87-2.61l-2.02-1.01c.46-.96.8-2.01.98-3.1h2.11c1.08,0,1.95-.87,1.95-1.95s-.87-1.95-1.95-1.95h0ZM82.91,77.4c0-1.07.88-1.95,1.95-1.95s1.95.88,1.95,1.95v.17c-.63-.11-1.29-.17-1.95-.17s-1.31.06-1.95.17v-.17ZM77.07,89.09c0-3.62,2.49-6.68,5.84-7.55v15.09c-3.36-.87-5.84-3.92-5.84-7.55h0ZM86.81,96.64v-15.09c3.36.87,5.84,3.92,5.84,7.55s-2.49,6.68-5.84,7.55h0Z"/>
  <path d="M84.86,59.87c-13.97,0-25.32,11.36-25.32,25.32s11.36,25.32,25.32,25.32,25.32-11.36,25.32-25.32-11.36-25.32-25.32-25.32ZM84.86,106.62c-11.81,0-21.43-9.61-21.43-21.43s9.61-21.43,21.43-21.43,21.43,9.61,21.43,21.43-9.61,21.43-21.43,21.43Z"/>
</svg>