<?xml version="1.0" encoding="UTF-8"?>
<svg id="Capa_1" xmlns="http://www.w3.org/2000/svg" version="1.1" viewBox="0 0 135 135">
  <!-- Generator: Adobe Illustrator 30.0.0, SVG Export Plug-In . SVG Version: 2.1.1 Build 123)  -->
  <path d="M111.63,54.69c-.61-.61-1.6-.61-2.21,0s-.61,1.6,0,2.21l.37.37-7.61,6.52c-1.65,1.41-2.59,3.46-2.59,5.63v10.25c-1.02-.92-2.25-1.62-3.62-2.02l-15.12-4.41v-2.8c3.98-3.83,6.25-9.12,6.25-14.65v-6.25c0-5.47-2.13-11.23-5.85-15.8-4-4.93-9.14-7.64-14.47-7.64s-10.46,2.71-14.47,7.64c-3.72,4.57-5.85,10.33-5.85,15.8v6.25c0,5.52,2.27,10.82,6.25,14.65v2.8l-15.12,4.41c-3.98,1.16-6.75,4.86-6.75,9v20.7c0,.86.7,1.56,1.56,1.56h71.87c2.59,0,4.69-2.1,4.69-4.69v-9.38c0-2.59-2.1-4.69-4.69-4.69h-1.56v-20.74c0-1.26.55-2.45,1.5-3.26l7.79-6.68.54.54c.3.3.7.46,1.11.46s.8-.15,1.11-.46c.61-.61.61-1.6,0-2.21l-3.12-3.12h-.01ZM93.61,105.79h-25.27v-36.03c7.02-.78,12.5-6.75,12.5-13.97v-6.25c0-6.95-5.12-10.94-14.06-10.94s-14.06,3.98-14.06,10.94v6.25c0,7.23,5.48,13.19,12.5,13.97v36.03h-18.75v-9.38c0-.86-.7-1.56-1.56-1.56s-1.56.7-1.56,1.56v9.38h-9.38v-19.14c0-2.76,1.85-5.23,4.5-6l16.25-4.73c.66-.2,1.12-.8,1.12-1.5v-4.66c0-.45-.19-.87-.52-1.16-3.64-3.27-5.73-7.93-5.73-12.8v-6.25c0-4.7,1.92-9.86,5.15-13.83,3.4-4.18,7.67-6.48,12.04-6.48s8.64,2.3,12.04,6.48c3.22,3.96,5.15,9.13,5.15,13.83v6.25c0,4.87-2.09,9.54-5.73,12.8-.33.3-.52.72-.52,1.16v4.66c0,.7.46,1.3,1.12,1.5l16.25,4.73c2.65.77,4.5,3.24,4.5,6v3.52h-1.56c-2.59,0-4.69,2.1-4.69,4.69v9.38c0,.55.09,1.07.27,1.56h0ZM66.78,66.73c-6.03,0-10.94-4.91-10.94-10.94v-6.25c0-2.71.97-4.67,2.95-5.97,1.84-1.2,4.6-1.84,7.98-1.84s6.14.64,7.98,1.84c1.99,1.3,2.95,3.25,2.95,5.97v6.25c0,6.03-4.91,10.94-10.94,10.94,0,0,.02,0,.02,0ZM104.28,93.29c.86,0,1.56.7,1.56,1.56v9.38c0,.86-.7,1.56-1.56,1.56h-6.25c-.86,0-1.56-.7-1.56-1.56v-9.38c0-.86.7-1.56,1.56-1.56h6.25Z"/>
</svg>