<?xml version="1.0" encoding="UTF-8"?>
<svg id="Capa_1" xmlns="http://www.w3.org/2000/svg" version="1.1" viewBox="0 0 87 79.5">
  <!-- Generator: Adobe Illustrator 30.0.0, SVG Export Plug-In . SVG Version: 2.1.1 Build 123)  -->
  <defs>
    <style>
      .st0 {
        fill: #e84c3d;
      }
    </style>
  </defs>
  <path d="M43.2,25.06c-3.47,0-6.27,2.81-6.27,6.27h12.55c0-3.47-2.81-6.27-6.27-6.27h0Z"/>
  <path d="M56.33,40.22h-3.63c.1-1.77.06-3.38,0-4.54l2.86-2.86c.72-.73.93-1.73.44-2.22s-1.48-.29-2.22.44l-2.79,2.79h-15.28l-2.79-2.79c-.73-.72-1.73-.93-2.22-.44s-.29,1.48.44,2.22l2.86,2.86c-.08,1.68-.08,3.19,0,4.54h-3.63c-.55,0-1,.45-1,1v.5c0,.55.45,1,1,1h3.86c.29,2.08.77,3.69,1.35,4.95l-3.83,3.83c-.39.39-.39,1.02,0,1.41l.35.35c.39.39,1.02.39,1.41,0l3.42-3.42c2.17,2.57,4.73,2.22,4.73,2.22v-15.09h3.16v15.09c2.16,0,3.74-.85,4.9-2.18l3.37,3.37c.39.39,1.02.39,1.41,0l.35-.35c.39-.39.39-1.02,0-1.41l-3.77-3.77c.7-1.51,1.13-3.27,1.37-5.01h3.87c.55,0,1-.45,1-1v-.5c0-.55-.45-1-1-1h.01Z"/>
  <path class="st0" d="M79.85,38.36h-4.53c-.6-16.59-13.98-29.98-30.58-30.58V3.26c0-.55-.45-1-1-1h-.5c-.55,0-1,.45-1,1v4.53c-16.5.69-29.79,14.05-30.39,30.57h-4.71c-.55,0-1,.45-1,1v.5c0,.55.45,1,1,1h4.72c.68,16.45,13.94,29.7,30.38,30.39v4.72c0,.55.45,1,1,1h.5c.55,0,1-.45,1-1v-4.72c16.53-.6,29.88-13.88,30.57-30.39h4.54c.55,0,1-.45,1-1v-.5c0-.55-.45-1-1-1ZM44.74,68.43v-5.57c0-.55-.45-1-1-1h-.5c-.55,0-1,.45-1,1v5.56c-14.89-.68-26.88-12.67-27.56-27.56h5.57c.55,0,1-.45,1-1v-.5c0-.55-.45-1-1-1h-5.57c.59-14.98,12.61-27.07,27.57-27.75v5.76c0,.55.45,1,1,1h.5c.55,0,1-.45,1-1v-5.76c15.04.59,27.16,12.72,27.76,27.76h-5.75c-.55,0-1,.45-1,1v.5c0,.55.45,1,1,1h5.75c-.69,14.96-12.77,26.98-27.75,27.57h-.02Z"/>
</svg>