<?xml version="1.0" encoding="UTF-8"?>
<svg id="Capa_1" xmlns="http://www.w3.org/2000/svg" version="1.1" viewBox="0 0 81 80">
  <!-- Generator: Adobe Illustrator 30.0.0, SVG Export Plug-In . SVG Version: 2.1.1 Build 123)  -->
  <path d="M67.45,77.5H13.55c-.65,0-1.17-.52-1.17-1.17h0V3.68c0-.65.52-1.17,1.17-1.17,0,0,0,0,0,0h53.91c.65,0,1.17.52,1.17,1.17h0v72.66c0,.65-.52,1.17-1.17,1.17h0ZM14.72,75.16h51.56V4.85H14.72v70.31Z"/>
  <path d="M63.94,73.99H17.06c-.65,0-1.17-.52-1.17-1.17h0V7.19c0-.65.52-1.17,1.17-1.17s1.17.52,1.17,1.17v64.45h44.53V7.19c0-.65.52-1.17,1.17-1.17s1.17.52,1.17,1.17v65.62c0,.65-.52,1.17-1.17,1.17h0Z"/>
  <g>
    <path d="M32.3,9.53c-.44,0-.85-.25-1.05-.65l-2.34-4.69c-.29-.58-.06-1.28.52-1.57.58-.29,1.28-.06,1.57.52,0,0,0,0,0,.01l2.34,4.69c.29.58.06,1.28-.52,1.57-.16.08-.34.12-.52.12Z"/>
    <path d="M48.7,9.53c-.65,0-1.17-.53-1.17-1.17,0-.18.04-.36.12-.52l2.34-4.69c.29-.58,1-.81,1.57-.52.58.29.81.99.52,1.57l-2.34,4.69c-.2.4-.61.65-1.05.65Z"/>
    <path d="M48.7,9.53h-16.41c-.65,0-1.17-.52-1.17-1.17s.52-1.17,1.17-1.17h16.41c.65,0,1.17.52,1.17,1.17s-.52,1.17-1.17,1.17Z"/>
  </g>
  <path d="M63.94,8.36h-14.65c-.65,0-1.17-.52-1.17-1.17s.52-1.17,1.17-1.17h14.65c.65,0,1.17.52,1.17,1.17s-.52,1.17-1.17,1.17Z"/>
  <path d="M31.71,8.36h-14.65c-.65,0-1.17-.52-1.17-1.17s.52-1.17,1.17-1.17h14.65c.65,0,1.17.52,1.17,1.17s-.52,1.17-1.17,1.17Z"/>
  <g>
    <g>
      <path d="M25.26,57.58c-.32,0-.63-.13-.85-.36l-1.11-1.17c-.45-.47-.43-1.21.04-1.66.47-.45,1.21-.43,1.66.04l1.11,1.17c.45.47.43,1.21-.04,1.66-.22.21-.51.32-.81.32Z"/>
      <path d="M25.26,57.58c-.65,0-1.17-.52-1.17-1.17,0-.31.12-.61.34-.83l3.52-3.52c.46-.46,1.2-.46,1.66,0,.46.46.46,1.2,0,1.66h0l-3.52,3.52c-.22.22-.52.34-.83.34Z"/>
    </g>
    <path d="M56.9,54.07h-23.44c-.65,0-1.17-.52-1.17-1.17s.52-1.17,1.17-1.17h23.44c.65,0,1.17.52,1.17,1.17s-.52,1.17-1.17,1.17Z"/>
    <path d="M47.53,57.58h-14.07c-.65,0-1.17-.52-1.17-1.17s.52-1.17,1.17-1.17h14.07c.65,0,1.17.52,1.17,1.17s-.52,1.17-1.17,1.17Z"/>
    <g>
      <path d="M25.26,65.79c-.32,0-.63-.13-.85-.36l-1.11-1.17c-.45-.47-.43-1.21.04-1.66.47-.45,1.21-.43,1.66.04l1.11,1.17c.45.47.43,1.21-.04,1.66-.22.21-.51.32-.81.32Z"/>
      <path d="M25.26,65.79c-.65,0-1.17-.52-1.17-1.17,0-.31.12-.61.34-.83l3.52-3.52c.46-.46,1.2-.46,1.66,0,.46.46.46,1.2,0,1.66h0l-3.52,3.52c-.22.22-.52.34-.83.34Z"/>
    </g>
    <path d="M56.9,62.27h-23.44c-.65,0-1.17-.52-1.17-1.17s.52-1.17,1.17-1.17h23.44c.65,0,1.17.52,1.17,1.17s-.52,1.17-1.17,1.17Z"/>
    <path d="M47.53,65.79h-14.07c-.65,0-1.17-.52-1.17-1.17s.52-1.17,1.17-1.17h14.07c.65,0,1.17.52,1.17,1.17s-.52,1.17-1.17,1.17Z"/>
    <g>
      <path d="M25.26,49.4c-.32,0-.63-.13-.85-.36l-1.11-1.17c-.45-.47-.43-1.21.04-1.66.47-.45,1.21-.43,1.66.04,0,0,0,0,0,0l1.11,1.17c.45.47.43,1.21-.04,1.66-.22.21-.51.32-.81.32Z"/>
      <path d="M25.26,49.4c-.65,0-1.17-.52-1.17-1.17,0-.31.12-.61.34-.83l3.52-3.52c.46-.46,1.2-.46,1.66,0,.46.46.46,1.2,0,1.66l-3.52,3.52c-.22.22-.52.34-.83.34Z"/>
    </g>
    <path d="M56.9,45.89h-23.44c-.65,0-1.17-.52-1.17-1.17s.52-1.17,1.17-1.17h23.44c.65,0,1.17.52,1.17,1.17s-.52,1.17-1.17,1.17Z"/>
    <path d="M47.53,49.4h-14.07c-.65,0-1.17-.52-1.17-1.17s.52-1.17,1.17-1.17h14.07c.65,0,1.17.52,1.17,1.17s-.52,1.17-1.17,1.17Z"/>
  </g>
  <g>
    <path d="M40.5,38.83c-7.12,0-12.89-5.77-12.89-12.89s5.77-12.89,12.89-12.89,12.89,5.77,12.89,12.89c0,7.12-5.77,12.88-12.89,12.89ZM40.5,15.39c-5.82,0-10.55,4.72-10.55,10.55s4.72,10.55,10.55,10.55,10.55-4.72,10.55-10.55c0-5.82-4.72-10.54-10.55-10.55Z"/>
    <path d="M40.5,34.14c-.2,0-.4-.05-.57-.15-3.8-2.04-5.23-6.78-3.19-10.58.73-1.35,1.83-2.46,3.19-3.19.35-.2.79-.2,1.14,0,3.8,2.04,5.23,6.78,3.19,10.58-.73,1.35-1.83,2.46-3.19,3.19-.17.1-.37.15-.57.15ZM40.5,22.64c-2.47,1.71-3.09,5.1-1.38,7.57.37.54.84,1,1.38,1.38,2.47-1.71,3.09-5.1,1.38-7.57-.37-.54-.84-1-1.38-1.38Z"/>
    <path d="M43.58,25.94h-6.16c-.65,0-1.17-.52-1.17-1.17s.52-1.17,1.17-1.17h6.16c.65,0,1.17.52,1.17,1.17s-.52,1.17-1.17,1.17Z"/>
    <path d="M41.21,22.88c-.65,0-1.17-.53-1.17-1.17,0-.21.06-.41.16-.59l1.63-2.8c.33-.56,1.04-.75,1.6-.42.56.33.75,1.04.42,1.6l-1.63,2.8c-.21.36-.6.58-1.01.58Z"/>
    <path d="M39.79,22.88c-.42,0-.8-.22-1.01-.58l-1.63-2.8c-.33-.56-.14-1.28.42-1.6.56-.33,1.28-.14,1.6.42l1.63,2.8c.33.56.14,1.28-.42,1.6-.18.1-.38.16-.59.16h0Z"/>
    <path d="M47.53,28.28h-3.52c-.65,0-1.17-.52-1.17-1.17s.52-1.17,1.17-1.17h3.52c.65,0,1.17.52,1.17,1.17s-.52,1.17-1.17,1.17Z"/>
    <path d="M36.98,28.28h-3.52c-.65,0-1.17-.52-1.17-1.17s.52-1.17,1.17-1.17h3.52c.65,0,1.17.52,1.17,1.17s-.52,1.17-1.17,1.17Z"/>
    <path d="M32.82,35.96c-.65,0-1.17-.52-1.17-1.17,0-.31.12-.61.34-.83l16.53-16.53c.46-.46,1.2-.46,1.66,0,.46.46.46,1.2,0,1.66h0l-16.53,16.53c-.22.22-.52.34-.83.34Z"/>
    <path d="M46.36,34.14c-.31,0-.61-.12-.83-.34l-3-3c-.46-.46-.46-1.2,0-1.66.46-.46,1.2-.46,1.66,0l3,3c.46.46.46,1.2,0,1.66-.22.22-.52.34-.83.34h0Z"/>
    <path d="M37.64,25.42c-.31,0-.61-.12-.83-.34l-3-3c-.46-.46-.45-1.2,0-1.66.46-.45,1.19-.45,1.65,0l3,3c.46.46.46,1.2,0,1.66-.22.22-.52.34-.83.34h0Z"/>
  </g>
</svg>