<?xml version="1.0" encoding="UTF-8"?>
<svg id="Capa_1" xmlns="http://www.w3.org/2000/svg" version="1.1" viewBox="0 0 122.5 125">
  <!-- Generator: Adobe Illustrator 30.0.0, SVG Export Plug-In . SVG Version: 2.1.1 Build 123)  -->
  <path d="M85.82,31.93c-6.93-5.59-15.66-8.66-24.57-8.66-21.64,0-39.24,17.6-39.24,39.24,0,8.91,3.08,17.64,8.67,24.57l1.53.08,53.7-53.7-.08-1.53h-.01ZM44.87,70.21c0-3.57.44-7.33,1.44-10.79h10.71l-12.12,12.12c-.02-.43-.03-.88-.03-1.33ZM61.25,46.08c2.7,0,5.12.64,7.22,1.9l-9.38,9.38h-12.1c2.35-6.37,6.84-11.28,14.26-11.28ZM57.79,41.28c2.08-1.41,4.83-1.41,6.92,0,1.37.91,2.37,2.32,2.85,3.93-1.92-.8-4.04-1.2-6.32-1.2s-4.46.43-6.32,1.19c.49-1.61,1.49-3.01,2.86-3.93h.01ZM69.97,46.48s-.04-.02-.06-.04c-.25-2.43-1.4-4.66-3.17-6.2l2.51-3.22-1.63-1.27-2.59,3.32c-2.36-1.22-5.22-1.22-7.57,0l-2.59-3.32-1.63,1.27,2.51,3.22c-1.77,1.54-2.91,3.76-3.17,6.2-1.67,1.07-3.1,2.46-4.3,4.07l-7.21-2.79-1.97-6.29-1.97.62,2.12,6.77.61.65,7.24,2.81c-2.31,3.86-3.59,8.65-4.08,13.43l-6.34-.62-4.24-5.37-1.62,1.28,4.51,5.72.71.39,6.82.67c-.04.82-.07,1.64-.07,2.45,0,1.12.06,2.21.19,3.23l-11.42,11.42c-4.84-6.41-7.5-14.31-7.5-22.37,0-20.5,16.68-37.17,37.17-37.17,8.06,0,15.96,2.66,22.37,7.5l-13.65,13.65h.02Z"/>
  <path d="M90.29,37.84l-53.7,53.7.08,1.53c6.93,5.59,15.66,8.66,24.57,8.66,21.64,0,39.24-17.6,39.24-39.24,0-8.91-3.08-17.64-8.67-24.57l-1.53-.08h.01ZM61.25,87.58c-5.14,0-9.53-1.88-12.45-5.32l11.42-11.42v2.9h2.07v-4.96l9.35-9.35h4.57c.93,3.25,1.42,6.94,1.42,10.79,0,10.55-6.43,17.37-16.38,17.37h0ZM75.53,57.36h-1.84l1.31-1.31c.18.43.36.86.52,1.31h.01ZM61.25,99.67c-8.06,0-15.96-2.66-22.37-7.5l8.45-8.45c3.32,3.83,8.21,5.92,13.92,5.92,7.46,0,13.26-3.57,16.24-9.48l5.35,1.65,1.53,4.88,1.97-.62-1.69-5.39-.68-.68-5.65-1.75c.89-2.39,1.37-5.1,1.37-8.05,0-.83-.02-1.64-.07-2.45l6.82-.67.71-.39,4.51-5.72-1.62-1.28-4.24,5.37-6.34.62c-.42-4.17-1.41-8.03-2.9-11.22l14.35-14.35c4.84,6.41,7.5,14.31,7.5,22.37,0,20.5-16.68,37.17-37.17,37.17v.02Z"/>
  <path d="M61.25,15c-26.19,0-47.5,21.31-47.5,47.5s21.31,47.5,47.5,47.5,47.5-21.31,47.5-47.5S87.44,15,61.25,15ZM61.25,107.93c-25.05,0-45.43-20.38-45.43-45.43S36.2,17.07,61.25,17.07s45.43,20.38,45.43,45.43-20.38,45.43-45.43,45.43Z"/>
</svg>