<?xml version="1.0" encoding="UTF-8"?>
<svg id="Capa_1" xmlns="http://www.w3.org/2000/svg" version="1.1" viewBox="0 0 110 135">
  <!-- Generator: Adobe Illustrator 30.0.0, SVG Export Plug-In . SVG Version: 2.1.1 Build 123)  -->
  <path d="M106.07,112.64h-7.62c-2.58-5.01-8.12-8.5-14.48-9.22.9-1.91,2.16-3.77,3.56-5.85.34-.5.69-1.02,1.04-1.55,10.64-.99,10.72-7.37,10.8-14.12.03-2.58.07-5.5.64-8.5.12-.62-.13-1.25-.64-1.63-.51-.38-1.18-.43-1.74-.14-7.87,4.12-12.25,8.46-13.38,13.26-.7,2.96-.12,6.01,1.72,9.09-.39.58-.78,1.16-1.17,1.73-1.26,1.86-2.47,3.65-3.43,5.52-1.28-.96-2.65-1.85-4.06-2.78-.58-.38-1.17-.76-1.75-1.15.5-3.56-.14-6.6-1.94-9.05-2.91-3.99-8.63-6.29-17.48-7.04-.63-.05-1.23.26-1.55.8-.32.54-.31,1.22.05,1.75,1.69,2.55,2.86,5.23,3.89,7.6,2.17,4.98,4.24,9.74,10.27,9.74,1.47,0,3.17-.29,5.16-.91.53.35,1.05.69,1.57,1.03,1.15.75,2.27,1.48,3.32,2.23-6.12.77-11.43,4.11-14.03,8.89-2.6-1.34-5.55-2.09-8.62-2.09-.14,0-.28,0-.41,0-.73-1.21-1.53-2.4-2.38-3.65-.39-.57-.78-1.15-1.17-1.73,1.84-3.08,2.43-6.14,1.72-9.09-1.14-4.8-5.52-9.14-13.38-13.26-.56-.29-1.24-.24-1.74.14s-.76,1.01-.64,1.63c.57,3.01.6,5.93.64,8.5.08,6.75.17,13.13,10.8,14.12.35.53.7,1.04,1.04,1.55.52.76,1.02,1.5,1.49,2.23-1.82.4-3.56,1.06-5.15,1.94h-18.1c.03-.29.05-.59.05-.9v-20.66c0-.15-.02-.3-.06-.44l-1.06-3.79c6.61-2,13.18-6.01,19.1-11.69l4.6,1.47c2.13.67,4.23.25,5.77-1.16,1.65-1.51,2.4-3.91,1.91-6.11-.26-1.18-.87-2.2-1.75-2.98l2.68-2.63,12.37,11.69-.65.69c-.62.66-.6,1.7.07,2.33.32.3.72.45,1.13.45.44,0,.87-.17,1.2-.52l3.57-3.77c.62-.66.6-1.7-.07-2.33-.66-.62-1.7-.6-2.33.07l-.65.69-13.52-12.77c-.64-.61-1.65-.6-2.28.02l-4.64,4.55-6.71-2.06-4.16-11.79c-.1-.28-.27-.53-.5-.72l-8.04-6.72c-1.93-1.62-4.25-2.3-6.73-2.01l1.2-1.92c2.11-3.39,1.07-7.86-2.31-9.96-3.38-2.11-7.85-1.07-9.96,2.31l-12.05,19.33c-1.02,1.63-1.34,3.57-.91,5.46.19.81.51,1.58.94,2.26-2.38,5.96-3.25,11.29-2.6,15.85.65,4.52,2.82,8.14,6.29,10.48.59.4,1.21.75,1.86,1.07.74,1.85,1.65,3.63,2.79,5.21v20.11c0,.31.02.61.05.91H4.08c-.91,0-1.65.74-1.65,1.65v8.52c0,.91.74,1.65,1.65,1.65h101.98c.91,0,1.65-.74,1.65-1.65v-8.52c0-.91-.73-1.65-1.64-1.65h0ZM87.44,85.65c.76-3.21,3.74-6.4,8.86-9.5-.19,2.03-.21,3.95-.23,5.71-.07,5.88-.12,9.24-5.21,10.47.74-1.3,1.45-2.69,2.07-4.18.35-.84-.05-1.8-.89-2.15-.84-.35-1.8.05-2.15.89-.57,1.37-1.22,2.65-1.91,3.85-.76-1.77-.93-3.45-.55-5.09h0ZM61.53,90.06c-.7-1.62-1.47-3.38-2.43-5.18,5.93.88,9.91,2.66,11.86,5.32,1,1.36,1.48,2.98,1.47,4.9-1.1-.84-2.2-1.77-3.25-2.81-.64-.64-1.69-.63-2.33.01s-.63,1.69.01,2.33c1.15,1.14,2.34,2.14,3.53,3.06-5.18.84-6.52-2.23-8.86-7.63h0ZM42.1,92.76c-.02-1.77-.05-3.68-.23-5.71,5.13,3.1,8.1,6.29,8.86,9.5.39,1.64.21,3.32-.54,5.09-.69-1.21-1.34-2.48-1.91-3.85-.35-.84-1.31-1.24-2.15-.89-.84.35-1.24,1.31-.89,2.15.62,1.5,1.33,2.88,2.07,4.18-5.1-1.24-5.14-4.59-5.21-10.47h0ZM81.54,106.57c5.44,0,10.36,2.36,13.05,6.07h-26.11c2.68-3.71,7.62-6.07,13.06-6.07ZM11.05,71.88l11.26,7.47,1.42,5.1c-4.01.75-7.62.53-10.48-.52-1.31-3.8-1.98-8.13-2.2-12.05h0ZM26.93,83.67l-1.41-5.06,9.47-13.97.76,3.34c.56,2.48,2.27,4.34,4.69,5.11l2.88.92c-5.53,4.98-11.2,8.1-16.38,9.66h0ZM28.31,44.84c1.68-.27,3.19.14,4.49,1.23l7.69,6.43,4.29,12.14c.17.49.57.87,1.07,1.03l8.27,2.54c1.03.32,1.65.94,1.86,1.86.23,1.03-.14,2.25-.92,2.96-.68.62-1.53.77-2.55.45l-11.08-3.53c-1.3-.41-2.18-1.37-2.48-2.69l-1.59-7.05c-.14-.64-.65-1.13-1.3-1.25-.64-.12-1.3.15-1.67.69l-11.11,16.4-11.73-7.79,5.68-9.19s.06-.08.08-.13l7.62-12.22c.86-1.03,1.98-1.67,3.37-1.89h0ZM7.85,53.04l12.05-19.33c1.15-1.84,3.58-2.41,5.43-1.26,1.84,1.15,2.41,3.58,1.26,5.42l-4.33,6.95c-.21.27-.42.56-.61.87l-7.16,11.59c-.55.85-1.4,1.44-2.4,1.67-1.03.24-2.08.07-2.97-.49-.88-.55-1.5-1.42-1.74-2.45-.24-1.03-.07-2.08.49-2.97h0ZM7.69,61.45c1.07.6,2.27.91,3.48.91.06,0,.12,0,.18,0l-3.43,5.54s-.02.03-.02.05c-.01.02-.02.04-.03.05-.02.03-.03.06-.04.09,0,.02-.02.04-.02.06-.01.03-.02.06-.03.09,0,.02-.01.04-.02.06,0,.03-.02.06-.02.09,0,.02,0,.04-.01.06,0,.03-.01.07-.02.1,0,.02,0,.04,0,.06,0,.03,0,.07,0,.1v.04c-.01,2.11.12,7.22,1.39,12.59-4.11-4.04-4.61-11.1-1.39-19.89h0ZM19.14,88.22c1.75,0,3.59-.19,5.49-.57l1.02,3.65v20.43c0,3.05-2.24,4.41-4.46,4.41s-4.46-1.36-4.46-4.41v-20.66c0-.36-.12-.72-.34-1-.53-.69-1.01-1.44-1.45-2.24,1.34.26,2.74.39,4.2.39h0ZM5.73,115.93h8.84c1.43,2.31,4.04,3.5,6.62,3.5s5.18-1.19,6.62-3.5h14.9c-1.46,1.5-2.65,3.27-3.51,5.23H5.73v-5.23ZM42.87,121.16c2.63-4.63,7.7-7.61,13.3-7.61s10.67,2.98,13.3,7.61h-26.6ZM104.42,121.16h-31.28c-.86-1.96-2.05-3.72-3.51-5.23h34.79v5.23ZM83.06,68.49c13.1,0,23.75-10.65,23.75-23.75s-10.65-23.74-23.75-23.74-23.74,10.65-23.74,23.74,10.65,23.75,23.74,23.75ZM83.06,65.2c-5.05,0-9.67-1.84-13.24-4.88l7.4-7.4.67.67c.21.21.44.42.67.61l-.45.45c-1.5,1.51-1.5,3.97,0,5.47l2.78,2.78c.32.32.74.48,1.17.48s.84-.16,1.17-.48c.64-.64.64-1.69,0-2.33l-2.78-2.78c-.22-.22-.22-.6,0-.82l1.08-1.08c1.09.39,2.23.59,3.37.59,2.53,0,5.07-.96,7-2.89,0,0,0,0,0,0,2.79-2.8,3.56-6.88,2.3-10.38l1.07-1.07c.23-.23.61-.23.84,0l2.78,2.78c.32.32.74.48,1.17.48s.84-.16,1.17-.48c.64-.64.64-1.69,0-2.33l-2.79-2.79c-1.51-1.5-3.97-1.5-5.48,0l-.44.44c-.19-.23-.39-.45-.61-.67l-.67-.67,7.4-7.4c3.04,3.57,4.88,8.19,4.88,13.24-.02,11.29-9.19,20.47-20.47,20.47h0ZM80.74,37.34c.59-.59,1.36-.88,2.14-.88s1.55.29,2.13.88l1.57,1.57-3.51,3.51-3.45-3.45c.21-.33.39-.68.54-1.04l.59-.59ZM89.58,41.9c2.17,2.18,2.51,5.51,1.02,8.05l-5.2-5.2,3.51-3.51.67.67ZM75.66,46.69c-1.18-1.18-1.18-3.09,0-4.27l.65-.65c.33-.14.65-.3.96-.49l3.46,3.46-3.51,3.51-1.56-1.57ZM83.06,47.08l5.2,5.2c-2.54,1.5-5.87,1.16-8.05-1.02l-.67-.67,3.52-3.51ZM83.06,24.29c5.05,0,9.67,1.84,13.25,4.88l-7.4,7.4-1.31-1.31.42-.41c1.5-1.51,1.5-3.97,0-5.48l-2.79-2.78c-.64-.64-1.69-.64-2.33,0-.64.64-.64,1.69,0,2.33l2.79,2.78c.23.23.23.61,0,.83l-.93.93c-1.38-.43-2.88-.37-4.23.17-.29-1.28-.92-2.5-1.92-3.5-.64-.64-1.69-.64-2.33,0-.64.64-.64,1.69,0,2.33,1,1,1.33,2.41,1,3.69l-1.38,1.39s-.02.02-.03.03c0,0-.02.02-.03.03l-1.32,1.32c-1.28.33-2.7,0-3.7-1-.64-.64-1.69-.64-2.33,0-.64.64-.64,1.69,0,2.33.99.99,2.2,1.62,3.47,1.91-.56,1.36-.62,2.89-.19,4.29l-.93.93c-.22.22-.6.22-.83,0l-2.78-2.78c-.64-.64-1.69-.64-2.33,0-.64.64-.64,1.69,0,2.33l2.78,2.78c.76.76,1.75,1.13,2.74,1.13s1.98-.38,2.74-1.13l.41-.41,1.31,1.31-7.4,7.4c-3.04-3.57-4.88-8.2-4.88-13.25,0-11.29,9.17-20.46,20.45-20.46h0ZM43.32,46.63c.36.03.72.05,1.09.05,2.8,0,5.49-.97,7.67-2.79,2.46-2.05,3.96-4.94,4.24-8.13.29-3.19-.69-6.29-2.75-8.75-2.05-2.45-4.94-3.96-8.13-4.25-6.58-.58-12.4,4.3-12.99,10.87-.58,6.58,4.29,12.41,10.87,12.99h0ZM35.72,33.94c.4-4.51,4.2-7.92,8.65-7.92.26,0,.51.01.77.03,2.31.21,4.41,1.3,5.9,3.08,1.49,1.78,2.2,4.03,1.99,6.34-.2,2.31-1.3,4.41-3.08,5.9-1.78,1.49-4.03,2.2-6.35,1.99-4.77-.42-8.31-4.65-7.88-9.42h0ZM78.18,82.46c.66.62.69,1.67.07,2.33-.32.34-.76.52-1.19.52-.41,0-.81-.15-1.13-.45l-1.6-1.52c-.66-.62-.69-1.67-.07-2.33s1.67-.69,2.33-.07l1.6,1.52ZM81.51,78.91l1.6,1.52c.66.62.69,1.67.07,2.33-.32.34-.76.52-1.19.52-.41,0-.81-.15-1.13-.45l-1.6-1.52c-.66-.62-.69-1.67-.07-2.33.62-.66,1.66-.69,2.32-.07ZM83.8,77.5c-.41,0-.81-.15-1.13-.45l-1.6-1.52c-.66-.62-.69-1.67-.06-2.33s1.67-.69,2.33-.06l1.6,1.52c.66.62.69,1.67.06,2.33-.32.34-.76.51-1.19.51Z"/>
</svg>