<svg id="Layer_1" data-name="Layer 1" xmlns="http://www.w3.org/2000/svg" viewBox="0 0 26 26"><title>jyj-electricidad-electricista-bahia-blanca-service-industrias-electricidad-aire-acondicionado-bombas-camaras-instalacion-planos</title><path d="M9.72,14.59H11l-.65,4a.2.2,0,0,0,.13.23.19.19,0,0,0,.1,0,.24.24,0,0,0,.17-.07L17,13.18a.2.2,0,0,0,.06-.24.24.24,0,0,0-.22-.14H14.26L15.91,9.2a.22.22,0,0,0,0-.21.26.26,0,0,0-.2-.1H10.37a.24.24,0,0,0-.24.2l-.65,5.25a.2.2,0,0,0,.06.18.27.27,0,0,0,.18.07Zm.86-5.26h4.75l-1.66,3.6a.23.23,0,0,0,0,.21.26.26,0,0,0,.2.1h2.33L10.94,18l.58-3.6a.24.24,0,0,0,0-.18.24.24,0,0,0-.18-.07H10Z"/><path d="M7.92,4.15a.22.22,0,0,0-.24.22v.72H5.57a.23.23,0,0,0-.24.22V21.63a.23.23,0,0,0,.24.22H20.43a.23.23,0,0,0,.24-.22V5.31a.23.23,0,0,0-.24-.22H18.32V4.37a.22.22,0,0,0-.24-.22.23.23,0,0,0-.24.22v.72H14.93V4.37a.22.22,0,0,0-.24-.22.23.23,0,0,0-.24.22v.72h-2.9V4.37a.23.23,0,0,0-.24-.22.22.22,0,0,0-.24.22v.72H8.16V4.37a.23.23,0,0,0-.24-.22Zm3.15,1.38v.72a.23.23,0,0,0,.24.22.23.23,0,0,0,.24-.22V5.53h2.9v.72a.23.23,0,0,0,.24.22.23.23,0,0,0,.24-.22V5.53h2.91v.72a.23.23,0,0,0,.24.22.23.23,0,0,0,.24-.22V5.53h1.87V21.41H5.81V5.53H7.68v.72a.23.23,0,0,0,.24.22.23.23,0,0,0,.24-.22V5.53Z"/></svg>