<?xml version="1.0" encoding="UTF-8"?>
<svg id="Capa_1" xmlns="http://www.w3.org/2000/svg" version="1.1" viewBox="0 0 133.62 135">
  <!-- Generator: Adobe Illustrator 30.0.0, SVG Export Plug-In . SVG Version: 2.1.1 Build 123)  -->
  <defs>
    <style>
      .st0 {
        fill: none;
      }
    </style>
  </defs>
  <polygon class="st0" points="35.88 76.7 35.93 76.7 35.88 63.35 35.88 76.7"/>
  <path class="st0" d="M94.21,31.21c0-.68-.56-1.23-1.23-1.23h-6.86c-.67,0-1.22.56-1.22,1.23h0v4.72l9.32,6.99v-11.71Z"/>
  <path class="st0" d="M63.61,38.86l-27.72,20.77v3.71l29.51-22.11c1.12-.84,2.67-.84,3.78,0l29.53,22.13.05,15.13h.09s0-18.73,0-18.73l-27.88-20.89c-2.16-1.63-5.19-1.63-7.36,0Z"/>
  <path class="st0" d="M36.03,103.43c0,2.34,1.9,4.25,4.24,4.25l54.34.05c1.13,0,2.2-.44,2.99-1.24h0c.81-.81,1.25-1.87,1.25-3l-.09-24.99-62.83-1.79.1,26.72Z"/>
  <path class="st0" d="M105.91,55.42l-36.74-27.56c-1.11-.84-2.67-.84-3.78,0l-36.74,27.56c-1.77,1.34-2.17,3.81-.89,5.5,1.28,1.69,3.76,2,5.53.65l2.59-1.94v-6.64l34.67-21.02,28.29,25.94v1.84l2.43,1.82c1.77,1.33,4.25,1.05,5.53-.65.61-.81.85-1.83.69-2.86-.17-1.06-.73-2-1.59-2.64Z"/>
  <path d="M110.43,57.6h.02c-.28-1.82-1.26-3.44-2.75-4.56l-10.51-7.89v-13.95c0-2.32-1.88-4.21-4.21-4.21h-6.86c-2.31,0-4.21,1.88-4.21,4.21v2.48l-10.94-8.21c-2.16-1.63-5.2-1.63-7.36,0l-36.74,27.56c-3.08,2.32-3.75,6.67-1.48,9.67,1.33,1.76,3.36,2.68,5.44,2.68.7,0,1.4-.11,2.08-.33l.14,38.38c0,3.98,3.23,7.22,7.22,7.22l54.34.05c1.92,0,3.74-.75,5.1-2.12,1.37-1.36,2.12-3.18,2.12-5.12l-.14-38.43c2.71.84,5.74,0,7.5-2.34,1.1-1.46,1.55-3.27,1.26-5.12ZM84.89,31.21h0c0-.67.55-1.23,1.22-1.23h6.86c.67,0,1.23.55,1.23,1.23v11.71l-9.32-6.99v-4.72ZM106.81,60.92c-1.28,1.7-3.76,1.99-5.53.65l-2.43-1.82v18.73h-.09s.09,24.99.09,24.99c0,1.13-.44,2.2-1.25,3h0c-.8.8-1.86,1.24-2.99,1.24l-54.34-.05c-2.34,0-4.24-1.91-4.24-4.25l-.1-26.72h-.05v-17.07l-2.59,1.94c-1.77,1.34-4.25,1.04-5.53-.65-1.28-1.69-.88-4.16.89-5.5l36.74-27.56c1.12-.84,2.67-.84,3.78,0l36.74,27.56c.86.65,1.42,1.58,1.59,2.64.16,1.03-.09,2.05-.69,2.86Z"/>
</svg>