<?xml version="1.0" encoding="UTF-8"?>
<svg id="Capa_1" xmlns="http://www.w3.org/2000/svg" version="1.1" viewBox="0 0 351 79.5">
  <!-- Generator: Adobe Illustrator 30.0.0, SVG Export Plug-In . SVG Version: 2.1.1 Build 123)  -->
  <defs>
    <style>
      .st0 {
        fill: #e52337;
      }
    </style>
  </defs>
  <g>
    <path d="M96.14,28.73V11.38h11.07v3.06h-7.55v5.1h6.17v3.06h-6.17v6.12h-3.52Z"/>
    <path d="M123.27,22.94c0,2.02,1.03,3.04,3.09,3.04s3.09-1.01,3.09-3.04v-11.56h3.52v11.48c0,2.13-.55,3.69-1.65,4.68s-2.75,1.49-4.96,1.49-3.87-.5-4.96-1.49-1.65-2.56-1.65-4.68v-11.48h3.52s0,11.56,0,11.56Z"/>
    <path d="M146.79,28.73V11.38h6l3.06,12.65,3.06-12.65h6v17.35h-3.52v-13.42h-.38l-3.39,12.65h-3.52l-3.39-12.65h-.38v13.42h-3.54,0Z"/>
    <path d="M178.89,28.73V11.38h3.52v17.35h-3.52Z"/>
    <path d="M203.61,22.51v-3.06h5.05v9.01c-2.43.39-4.41.59-5.92.59-2.7,0-4.56-.72-5.58-2.17-1.01-1.45-1.52-3.74-1.52-6.89s.53-5.42,1.58-6.81c1.05-1.39,2.85-2.09,5.38-2.09,1.58,0,3.29.18,5.13.54l.92.18-.1,2.73c-2.04-.22-3.71-.33-5.01-.33s-2.22.15-2.74.46-.91.87-1.16,1.7-.37,2.24-.37,4.24.25,3.4.74,4.2,1.51,1.2,3.06,1.2l2.12-.1v-3.37h-1.58v-.03Z"/>
    <path d="M220.73,28.73l3.9-17.35h6.68l3.9,17.35h-3.52l-.69-3.14h-6.07l-.69,3.14h-3.52.01ZM227.36,14.29l-1.76,8.24h4.75l-1.76-8.24h-1.23Z"/>
    <path d="M253.59,28.73h-5.84V11.38h5.84c1.5,0,2.73.16,3.7.47s1.72.83,2.26,1.56.91,1.57,1.11,2.55c.2.98.31,2.25.31,3.81s-.09,2.86-.28,3.89c-.19,1.03-.54,1.95-1.06,2.76s-1.27,1.4-2.26,1.76-2.25.55-3.78.55ZM257.29,21.84c.03-.54.05-1.3.05-2.26s-.03-1.73-.1-2.31-.23-1.11-.49-1.58c-.25-.48-.63-.8-1.13-.98-.5-.18-1.18-.27-2.03-.27h-2.32v11.23h2.32c1.28,0,2.2-.32,2.78-.97.49-.53.8-1.48.92-2.86Z"/>
    <path d="M286.24,26.88c-1.08,1.44-2.94,2.16-5.58,2.16s-4.49-.72-5.57-2.16c-1.08-1.44-1.62-3.69-1.62-6.75s.54-5.34,1.62-6.83,2.94-2.23,5.57-2.23,4.5.74,5.58,2.23,1.62,3.76,1.62,6.83-.54,5.31-1.62,6.75ZM277.84,24.64c.5.89,1.44,1.34,2.82,1.34s2.32-.45,2.82-1.34.75-2.39.75-4.49-.25-3.63-.77-4.58c-.51-.95-1.45-1.43-2.81-1.43s-2.3.48-2.81,1.43-.76,2.48-.76,4.58.25,3.6.75,4.49h0Z"/>
    <path d="M304.6,22.92v5.82h-3.52V11.38h6.74c4.08,0,6.12,1.9,6.12,5.71,0,2.26-.85,3.93-2.55,5l2.47,6.63h-3.85l-2.02-5.82h-3.39s0,.02,0,.02ZM309.72,19.14c.41-.51.61-1.18.61-2.02s-.22-1.5-.65-1.99-1.06-.74-1.88-.74h-3.21v5.51h3.27c.83,0,1.45-.25,1.86-.77h0Z"/>
    <path d="M325.44,28.73l3.9-17.35h6.68l3.9,17.35h-3.52l-.69-3.14h-6.07l-.69,3.14h-3.52.01ZM332.07,14.29l-1.76,8.24h4.75l-1.76-8.24h-1.23,0Z"/>
  </g>
  <g>
    <path class="st0" d="M107.51,39.21c-3.3,0-4.95,1.09-4.95,3.27,0,.97.41,1.71,1.23,2.23s2.73,1.26,5.75,2.23c3.01.97,5.13,2.07,6.34,3.29,1.21,1.23,1.82,3.11,1.82,5.66,0,3.24-.98,5.7-2.95,7.36-1.97,1.67-4.54,2.5-7.73,2.5-2.36,0-5.26-.36-8.68-1.09l-1.64-.32.64-4.86c4.06.55,7.17.82,9.32.82,3.21,0,4.82-1.33,4.82-4,0-.97-.37-1.73-1.11-2.27s-2.22-1.14-4.43-1.77c-3.52-1-5.99-2.19-7.43-3.57s-2.16-3.29-2.16-5.75c0-3.09.94-5.39,2.82-6.91,1.88-1.51,4.45-2.27,7.73-2.27,2.24,0,5.09.3,8.54.91l1.64.32-.5,4.95c-4.27-.48-7.29-.73-9.04-.73,0,0-.03,0-.03,0Z"/>
    <path class="st0" d="M119.78,65.2l6.95-30.9h11.91l6.95,30.9h-6.27l-1.23-5.59h-10.82l-1.23,5.59h-6.27.01ZM131.6,39.48l-3.14,14.68h8.45l-3.14-14.68h-2.18,0Z"/>
    <path class="st0" d="M149.73,65.2v-30.9h10.59l7.45,25.45h.45v-25.45h6.27v30.9h-10.32l-7.73-25.45h-.45v25.45h-6.27.01Z"/>
    <path class="st0" d="M191.22,65.2v-30.9h10.68l5.45,22.54,5.45-22.54h10.68v30.9h-6.27v-23.9h-.68l-6.04,22.54h-6.27l-6.04-22.54h-.68v23.9h-6.28Z"/>
    <path class="st0" d="M230.21,65.2v-30.9h6.27v30.9h-6.27Z"/>
    <path class="st0" d="M256.07,54.11v-5.45h9v16.04c-4.33.7-7.85,1.04-10.54,1.04-4.82,0-8.13-1.29-9.93-3.86s-2.7-6.67-2.7-12.27.94-9.65,2.82-12.13c1.88-2.48,5.07-3.73,9.59-3.73,2.82,0,5.86.32,9.13.95l1.64.32-.18,4.86c-3.64-.39-6.61-.59-8.93-.59s-3.95.27-4.89.82c-.94.54-1.63,1.55-2.07,3.02s-.66,3.98-.66,7.54.44,6.05,1.32,7.48c.88,1.42,2.7,2.14,5.45,2.14l3.77-.18v-6s-2.82,0-2.82,0Z"/>
    <path class="st0" d="M276.97,54.89c0,3.61,1.83,5.41,5.5,5.41s5.5-1.8,5.5-5.41v-20.59h6.27v20.45c0,3.79-.98,6.57-2.93,8.34s-4.9,2.66-8.84,2.66-6.88-.89-8.84-2.66-2.93-4.55-2.93-8.34v-20.45h6.27v20.59Z"/>
    <path class="st0" d="M300.7,65.2v-30.9h20v5.45h-13.72v7.23h11v5.36h-11v7.41h13.72v5.45h-20Z"/>
    <path class="st0" d="M343.46,65.2h-17.59v-30.9h6.27v25.36h11.32v5.54Z"/>
  </g>
  <g>
    <path d="M32.86,30.46c0-3.69,2.99-6.68,6.68-6.68s6.68,2.99,6.68,6.68"/>
    <path d="M29.87,33.12h19.61s2.43,19.42-8.22,19.42v-16.06h-3.36v16.06s-9.71,1.31-8.03-19.42Z"/>
    <path d="M33.11,36.56c-.52.52-1.58.3-2.36-.47l-4.05-4.05c-.78-.78-.99-1.84-.47-2.36s1.58-.3,2.36.47l4.05,4.05c.78.78.99,1.84.47,2.36Z"/>
    <path d="M46.28,36.56c-.52-.52-.3-1.58.47-2.36l4.05-4.05c.78-.78,1.84-.99,2.36-.47s.3,1.58-.47,2.36l-4.05,4.05c-.78.78-1.84.99-2.36.47Z"/>
    <rect x="44.85" y="39.92" width="9.73" height="2.66" rx="1" ry="1"/>
    <rect x="24.81" y="39.92" width="9.73" height="2.66" rx="1" ry="1"/>
    <rect x="26.11" y="48.85" width="9.73" height="2.66" rx="1" ry="1" transform="translate(-26.41 36.6) rotate(-45)"/>
    <rect x="46.99" y="45.32" width="2.66" height="9.73" rx="1" ry="1" transform="translate(-21.33 48.86) rotate(-45)"/>
  </g>
  <g>
    <rect class="st0" x=".09" y="37.94" width="16.08" height="2.66" rx="1" ry="1"/>
    <rect class="st0" x="63.54" y="37.94" width="16.08" height="2.66" rx="1" ry="1"/>
    <rect class="st0" x="38.52" y="62.96" width="2.66" height="16.08" rx="1" ry="1"/>
    <rect class="st0" x="38.52" y="-.49" width="2.66" height="16.08" rx="1" ry="1"/>
    <path class="st0" d="M39.95,72.99c-18.64,0-33.81-15.17-33.81-33.81S21.31,5.36,39.95,5.36s33.81,15.17,33.81,33.81-15.17,33.81-33.81,33.81h0ZM39.95,8.36c-16.99,0-30.81,13.82-30.81,30.81s13.82,30.81,30.81,30.81,30.81-13.82,30.81-30.81-13.82-30.81-30.81-30.81Z"/>
  </g>
</svg>