<?xml version="1.0" encoding="UTF-8"?>
<svg id="Capa_1" xmlns="http://www.w3.org/2000/svg" xmlns:x="http://ns.adobe.com/Extensibility/1.0/" version="1.1" viewBox="0 0 126 125">
  <!-- Generator: Adobe Illustrator 30.0.0, SVG Export Plug-In . SVG Version: 2.1.1 Build 123)  -->
  <g>
    <path d="M94.2,74.95l.63,1.26c.25.63.75,1.13,1.38,1.51s1.38.5,2.01.38c1.38-.25,2.52-1.38,2.77-2.77l.13-1.38c-1.51-1.26-3.02-2.64-4.28-4.15-.63,1.76-1.64,3.52-2.64,5.16Z"/>
    <path d="M88.16,47.28c.63-.13,2.01,1.51,2.89,4.4-1.01,1.01-1.38,2.52-1.01,4.03l.25.63,9.18-1.38v-.63c0-1.51-.88-2.89-2.14-3.52-.13-3.02.75-4.91,1.38-5.03s1.13-.75,1.01-1.38-.75-1.13-1.38-1.01c-1.89.25-3.52,2.77-3.52,6.92h-.25l-.88.13h-.25c-1.26-4.03-3.52-5.79-5.53-5.53-.63.13-1.13.75-1.01,1.38-.13.63.5,1.13,1.26,1.01Z"/>
    <path d="M101.5,57.09c-.38-.38-1.01-.5-1.51-.38l-4.03.63,1.51,9.56c0,.38.25.75.5,1.01,2.26,2.77,5.28,5.28,7.42,6.92.88.75,2.26,0,2.14-1.13-.25-3.4-1.01-8.93-3.02-12.58-1.01-2.01-2.01-3.27-3.02-4.03Z"/>
    <path d="M95.71,67.16l-1.51-9.56-4.03.63c-.5.13-1.01.38-1.26.88-.63,1.01-1.26,2.52-1.64,4.78-.75,4.03.13,9.56,1.01,12.83.25,1.13,1.76,1.38,2.39.5,1.51-2.14,3.65-5.53,4.91-8.81.13-.5.13-.88.13-1.26Z"/>
  </g>
  <path d="M68.16,82.63l-2.01,1.89-3.27-2.39c-.5-.38-1.13-.25-1.51.25l-3.65,4.78c-.25-.25-.5-.5-.75-.88-.25-.25-.5-.38-.75-.63l1.26-4.03c.13-.38,0-.88-.25-1.13l-3.14-3.14,1.01-2.39c.25-.5,0-1.26-.5-1.51s-1.26,0-1.51.5l-1.38,3.02c-.13.38-.13.88.25,1.26l3.27,3.27-1.13,3.4c-.38,0-.75-.13-1.13-.13.5-.88.5-1.76-.25-2.64-.63-.63-1.89-1.13-3.02-1.26l-2.14-4.15.88-1.13c.38-.38.25-1.01-.13-1.38s-1.01-.25-1.38.13l-1.26,1.51c-.25.25-.25.75-.13,1.01l2.14,4.03c-.38.13-.63.25-.88.5-.25.25-.38.5-.5.88l-4.03-2.14c-.38-.13-.75-.13-1.01.13l-1.51,1.26c-.38.38-.5.88-.13,1.38.38.38.88.5,1.38.13l1.13-.88,4.15,2.14c.13,1.13.5,2.39,1.26,3.02.88.88,1.76.75,2.64.25,0,.38,0,.75.13,1.13l-3.4,1.13-3.52-2.77c-.38-.38-.88-.38-1.26-.25l-3.02,1.38c-.5.25-.75.88-.5,1.51.25.5.88.75,1.51.5l2.39-1.01,3.27,3.27c.25.25.75.38,1.13.25l4.03-1.26c.13.25.38.63.63.75.25.25.5.5.88.75l-4.78,3.65c-.5.38-.63,1.01-.25,1.51l2.39,3.27-1.89,2.01c-.38.38-.38,1.13,0,1.51.38.38,1.13.38,1.51,0h0l2.64-2.64c.38-.38.38-1.01.13-1.38l-2.26-3.14,4.78-3.65c.38.13.88.13,1.26.13-.5,1.13-.63,2.26.25,3.4l-1.26,3.77c-.13.38,0,.88.25,1.13l3.02,3.02-1.13,2.64c-.25.5,0,1.26.5,1.51.38.25.88.13,1.26-.25.13-.13.13-.25.25-.38l1.51-3.27c.13-.38.13-.88-.25-1.26l-3.14-3.14.75-2.14c2.52,1.89,6.42,3.02,8.05,1.51,1.64-1.64.38-5.53-1.51-8.05l2.14-.75,3.14,3.14c.38.38.75.38,1.26.25l3.27-1.51c.13,0,.25-.13.38-.25.38-.38.38-.75.25-1.26-.25-.5-.88-.75-1.51-.5l-2.64,1.13-3.4-3.02c-.25-.25-.75-.38-1.13-.25l-3.77,1.26c-1.26-.88-2.39-.88-3.4-.25,0-.38-.13-.88-.13-1.26l3.65-4.78,3.14,2.26c.38.38,1.01.25,1.38-.13l2.64-2.64h0c.38-.38.38-1.13,0-1.51-.5-.5-1.13-.5-1.64,0Z"/>
  <g>
    <path d="M62.5,36.34l-1.38.38-3.14-2.14c-.25-.25-.63-.25-1.01-.13l-3.52,1.38c-.5.25-.88.75-.63,1.38.25.5.75.88,1.38.63l3.14-1.13,3.02,2.14c.25.25.63.25.88.13l2.52-.75c.63.88,1.38,1.64,2.14,2.39l-2.14,2.14c-.25.25-.38.75-.25,1.26l1.51,3.27-1.13,2.14c-.25.5-.13,1.13.38,1.38.38.25.88.13,1.26-.13q.13-.13.13-.25l1.38-2.64c.13-.25.13-.63,0-.88l-1.38-3.02,1.64-1.64c1.26,1.01,2.52,2.01,3.77,2.64l-.63,3.52c0,.25,0,.63.25.88l1.38,1.76-1.01,2.26c-.25.5,0,1.13.63,1.38.38.13.88,0,1.13-.25.13-.13.13-.25.25-.38l1.13-2.89c.13-.38.13-.75-.13-1.01l-1.38-1.76.5-2.64c2.39.88,4.53,1.13,6.04.25l-14.72-14.59c-.88.75-2.14,1.76-3.52,2.14.38.88.88,1.89,1.51,2.77Z"/>
    <path d="M84.01,29.17l-2.14,1.13-3.27-1.51c-.38-.25-.88-.13-1.26.25l-2.14,2.14c-.75-.75-1.64-1.51-2.39-2.14l.75-2.52c.13-.38,0-.63-.13-.88l-2.14-3.02,1.13-3.14c.25-.5-.13-1.13-.63-1.38-.5-.25-1.13.13-1.38.63l-1.38,3.65c-.13.38-.13.75.13,1.01l2.14,3.02-.25,1.38c-1.01-.63-1.89-1.01-2.77-1.38-.38,1.38-1.38,2.64-2.14,3.52l14.59,14.59c.75-1.51.63-3.65-.25-6.04l2.64-.5,1.76,1.38c.25.25.63.25,1.01.13l2.77-1.13c.13,0,.25-.13.38-.25.25-.25.38-.75.25-1.13-.25-.5-.88-.88-1.38-.63l-2.39.88-1.76-1.38c-.13,0-.5-.13-.75,0l-3.65.75c-.63-1.26-1.64-2.52-2.64-3.77l1.64-1.64,3.02,1.38c.25.13.63.13.88,0l2.64-1.38c.13,0,.13-.13.25-.13.38-.38.38-.88.13-1.26-.13-.63-.75-.88-1.26-.63Z"/>
    <path d="M65.65,24.39c-.63-.63-2.14-.88-3.4-.75-.88-2.26-1.01-4.65-.5-6.92.13-.5-.25-1.01-.75-1.13s-1.01.25-1.13.75c-.5,2.39-.38,5.03.5,7.55-.5-.13-1.01.13-1.38.38-.38.38-.5.88-.38,1.38-2.52-.88-5.03-1.01-7.55-.5-.5.13-.88.63-.75,1.13.13.5.63.88,1.13.75,2.26-.5,4.65-.25,6.92.5-.13,1.38.13,2.77.75,3.4,1.26,1.26,2.89,0,4.78-1.76,1.76-1.76,3.02-3.52,1.76-4.78Z"/>
  </g>
  <path d="M47.78,63.76c-1.76-1.13-3.52-2.64-5.16-4.03-.25-.25-.5-.5-.75-.63h0c1.38-1.76,1.26-4.03-.25-5.16-1.51-1.13-3.77-.63-5.03,1.13,0,0,0,.13-.13.13-1.76-1.01-3.77-1.64-5.91-1.64-8.3,0-11.57,7.04-11.82,13.96h-.25c-1.89,0-3.4,1.51-3.4,3.4s1.51,3.4,3.4,3.4h10.82c.75,0,1.26.63,1.26,1.26,0,.75-.63,1.26-1.26,1.26h-4.4c-.63,0-1.13.5-1.13,1.13s.5,1.13,1.13,1.13h4.4c1.89,0,3.4-1.51,3.4-3.52,0-1.89-1.51-3.4-3.4-3.4h-10.82c-.75,0-1.26-.63-1.26-1.26,0-.75.63-1.26,1.26-1.26h11.7c-.13-4.03-2.52-4.53-2.77-4.53-.63-.13-1.01-.63-.88-1.26.13-.63.63-1.01,1.26-.88,1.64.25,4.53,1.89,4.65,6.79h12.83c2.01,0,3.77-1.01,4.15-2.52.38-1.38-.25-2.64-1.64-3.52ZM40.36,64.39c-.75,0-1.51-.63-1.51-1.51,0-.75.63-1.51,1.51-1.51.75,0,1.51.63,1.51,1.51s-.75,1.51-1.51,1.51Z"/>
  <path d="M62.25,2.5C29.29,2.5,2.5,29.29,2.5,62.25s26.79,59.75,59.75,59.75,59.75-26.79,59.75-59.75S95.21,2.5,62.25,2.5ZM9.92,62.25c0-13.08,4.91-25.03,12.83-34.21l73.71,73.71c-9.18,7.92-21.13,12.83-34.21,12.83-28.81,0-52.33-23.52-52.33-52.33ZM101.75,96.46L28.04,22.75c9.18-7.92,21.13-12.83,34.21-12.83,28.81,0,52.33,23.52,52.33,52.33,0,13.08-4.91,25.03-12.83,34.21Z"/>
</svg>