<?xml version="1.0" encoding="UTF-8"?>
<svg id="Capa_1" xmlns="http://www.w3.org/2000/svg" version="1.1" viewBox="0 0 135 135">
  <!-- Generator: Adobe Illustrator 30.0.0, SVG Export Plug-In . SVG Version: 2.1.1 Build 123)  -->
  <defs>
    <style>
      .st0 {
        fill-rule: evenodd;
      }
    </style>
  </defs>
  <path class="st0" d="M66.58,17.83c22.59,0,39.18,21.09,34.03,42.98-.94,4.02-2.18,6.57-4.09,9.96l-24.39,43.15c-2.45,4.33-8.65,4.33-11.1,0l-24.4-43.17c-1.2-2.12-1.89-3.3-2.79-5.68-4.78-12.72-1.74-27.24,8.02-37,6.32-6.33,15.06-10.24,24.72-10.24h0ZM87.18,12.09h20.6c7.81,0,14.21,6.4,14.21,14.21v20.6c0,.85.69,1.54,1.54,1.54s1.54-.69,1.54-1.54v-20.6c0-9.52-7.78-17.29-17.29-17.29h-20.61c-.85,0-1.54.69-1.54,1.54s.69,1.54,1.54,1.54h0ZM121.99,88.1v20.6c0,7.81-6.4,14.21-14.21,14.21h-20.6c-.85,0-1.54.69-1.54,1.54s.69,1.54,1.54,1.54h20.6c9.52,0,17.29-7.78,17.29-17.29v-20.61c0-.85-.69-1.54-1.54-1.54s-1.54.69-1.54,1.54h0ZM45.98,122.91h-20.6c-7.81,0-14.21-6.4-14.21-14.21v-20.6c0-.85-.69-1.54-1.54-1.54s-1.54.69-1.54,1.54v20.6c0,9.52,7.78,17.29,17.29,17.29h20.6c.85,0,1.54-.69,1.54-1.54,0-.85-.69-1.54-1.54-1.54h0ZM11.16,46.9v-20.6c0-7.81,6.4-14.21,14.21-14.21h20.6c.85,0,1.54-.69,1.54-1.54s-.69-1.54-1.54-1.54h-20.6c-9.52,0-17.29,7.78-17.29,17.29v20.6c0,.85.69,1.54,1.54,1.54.85,0,1.54-.69,1.54-1.54h0ZM66.58,32.16c-11.7,0-21.19,9.49-21.19,21.19s9.49,21.19,21.19,21.19,21.19-9.49,21.19-21.19-9.49-21.19-21.19-21.19ZM79.38,40.55c-7.07-7.07-18.54-7.07-25.6,0-7.07,7.07-7.07,18.54,0,25.6,7.07,7.07,18.54,7.07,25.6,0,7.07-7.07,7.07-18.53,0-25.6ZM89.12,30.25c-12.45-12.45-32.63-12.45-45.08,0-9.26,9.26-11.89,23.24-6.74,35.16.68,1.56,1.41,2.79,2.26,4.29l24.14,42.72c1.27,2.24,4.49,2.24,5.75,0l25.63-45.35c2.21-4.25,3.37-9.42,3.37-14.28,0-8.8-3.56-16.77-9.33-22.54h0Z"/>
</svg>