<?xml version="1.0" encoding="UTF-8"?>
<svg id="Capa_1" xmlns="http://www.w3.org/2000/svg" version="1.1" viewBox="0 0 135 135">
  <!-- Generator: Adobe Illustrator 30.0.0, SVG Export Plug-In . SVG Version: 2.1.1 Build 123)  -->
  <path d="M122.14,25.01h-39.57s-.02,0-.03,0c-3.44-4.57-8.89-7.54-15.04-7.54s-11.6,2.97-15.04,7.54c-.01,0-.02,0-.03,0H12.86c-3.12,0-5.65,2.53-5.65,5.65v71.6c0,3.12,2.53,5.65,5.65,5.65h109.28c3.12,0,5.65-2.53,5.65-5.65V30.67c0-3.12-2.53-5.65-5.65-5.65h0ZM124.02,102.26c0,1.04-.85,1.88-1.88,1.88H12.86c-1.04,0-1.88-.85-1.88-1.88V30.67c0-1.04.85-1.88,1.88-1.88h37.38c-1.01,2.31-1.58,4.86-1.58,7.54,0,9.8,15.65,27.53,17.44,29.52.36.4.86.63,1.4.63s1.04-.23,1.4-.63c.27-.3,6.71-7.5,11.69-15.32.56-.88.3-2.04-.57-2.6-.88-.56-2.04-.3-2.6.57-3.46,5.42-7.75,10.66-9.92,13.22-5.23-6.11-15.07-18.95-15.07-25.39,0-8.31,6.76-15.07,15.07-15.07s15.07,6.76,15.07,15.07c0,1.29-.42,2.95-1.23,4.93-.4.96.06,2.06,1.02,2.46.96.4,2.06-.06,2.46-1.02,1.03-2.48,1.52-4.56,1.52-6.37,0-2.68-.57-5.22-1.58-7.54h37.38c1.04,0,1.88.85,1.88,1.88v71.6h0ZM114.6,32.55h-22.61c-1.04,0-1.88.85-1.88,1.88s.85,1.88,1.88,1.88h22.61c1.04,0,1.88.85,1.88,1.88v5.65h-28.26c-1.04,0-1.88.85-1.88,1.88v18.84c0,3.12,2.53,5.65,5.65,5.65h24.49v3.77h-7.54c-.76,0-1.45.46-1.74,1.17-.29.71-.13,1.51.41,2.05l8.87,8.87v4.09l-14.52-14.52c-1.07-1.07-2.49-1.66-4-1.66h-5.98c-3.12,0-5.65,2.53-5.65,5.65v16.96h-3.77v-5.65c0-3.12-2.53-5.65-5.65-5.65h-26.38c-3.12,0-5.65,2.53-5.65,5.65v5.65h-3.77v-20.73c0-3.12-2.53-5.65-5.65-5.65h-16.96v-3.77h16.96c3.12,0,5.65-2.53,5.65-5.65v-13.19h3.77v7.54c0,.76.46,1.45,1.17,1.74s1.51.13,2.05-.41l3.77-3.77c.74-.74.74-1.93,0-2.67s-1.93-.74-2.67,0l-.55.55v-4.87c0-1.04-.85-1.88-1.88-1.88h-28.26v-5.65c0-1.04.85-1.88,1.88-1.88h22.61c1.04,0,1.88-.85,1.88-1.88s-.85-1.88-1.88-1.88h-22.61c-3.12,0-5.65,2.53-5.65,5.65v56.52c0,3.12,2.53,5.65,5.65,5.65h94.21c3.12,0,5.65-2.53,5.65-5.65v-56.52c0-3.12-2.53-5.65-5.65-5.65h0ZM37.35,47.62v13.19c0,1.04-.85,1.88-1.88,1.88h-16.96v-15.07h18.84ZM18.51,94.73v-20.73h16.96c1.04,0,1.88.85,1.88,1.88v20.73h-16.96c-1.04,0-1.88-.85-1.88-1.88ZM48.66,90.96c0-1.04.85-1.88,1.88-1.88h26.38c1.04,0,1.88.85,1.88,1.88v5.65h-30.15v-5.65ZM91.99,66.46c-1.04,0-1.88-.85-1.88-1.88v-16.96h26.38v18.84h-24.49ZM113.5,77.77h2.99v2.99l-2.99-2.99ZM114.6,96.61h-24.49v-16.96c0-1.04.85-1.88,1.88-1.88h5.98c.5,0,.98.2,1.33.55l17.06,17.06c-.27.72-.94,1.23-1.75,1.23h0ZM27.93,38.2c1.04,0,1.88.85,1.88,1.88s-.85,1.88-1.88,1.88h-3.77c-1.04,0-1.88-.85-1.88-1.88s.85-1.88,1.88-1.88h3.77ZM95.76,41.97c-1.04,0-1.88-.85-1.88-1.88s.85-1.88,1.88-1.88h15.07c1.04,0,1.88.85,1.88,1.88s-.85,1.88-1.88,1.88h-15.07ZM53.76,57.59c.74.74.74,1.93,0,2.67l-4.55,4.55c-.35.35-.55.83-.55,1.33v9.75c0,1.04.85,1.88,1.88,1.88h26.38c1.04,0,1.88-.85,1.88-1.88v-16.96c0-1.04.85-1.88,1.88-1.88s1.88.85,1.88,1.88v16.96c0,3.12-2.53,5.65-5.65,5.65h-26.38c-3.12,0-5.65-2.53-5.65-5.65v-9.75c0-1.51.59-2.93,1.66-3.99l4.55-4.55c.74-.74,1.93-.74,2.67,0h0ZM67.5,28.78c-4.16,0-7.54,3.38-7.54,7.54s3.38,7.54,7.54,7.54,7.54-3.38,7.54-7.54-3.38-7.54-7.54-7.54ZM67.5,40.09c-2.08,0-3.77-1.69-3.77-3.77s1.69-3.77,3.77-3.77,3.77,1.69,3.77,3.77-1.69,3.77-3.77,3.77Z"/>
</svg>